<svg width="1366" height="1061" viewBox="0 0 1366 1061" fill="none" xmlns="http://www.w3.org/2000/svg">
<g clip-path="url(#clip0_1_288)">
<path d="M-325 340.343C-161.391 376.074 171.282 397.7 193.096 198.36C220.364 -50.8149 421.585 819.888 685.805 494.55C950.024 169.211 1161.59 858.44 1316.73 548.146C1471.88 237.852 1709.77 327.179 1741.74 166.391" stroke="#1B0F1F" stroke-width="9.40283"/>
<path d="M179 36C179.552 36 180 35.5523 180 35C180 34.4477 179.552 34 179 34C178.448 34 178 34.4477 178 35C178 35.5523 178.448 36 179 36Z" fill="#D9D9D9"/>
<path d="M251 31C251.552 31 252 30.5523 252 30C252 29.4477 251.552 29 251 29C250.448 29 250 29.4477 250 30C250 30.5523 250.448 31 251 31Z" fill="#D9D9D9"/>
<path d="M262 101C262.552 101 263 100.552 263 100C263 99.4477 262.552 99 262 99C261.448 99 261 99.4477 261 100C261 100.552 261.448 101 262 101Z" fill="#D9D9D9"/>
<path d="M958 36C958.552 36 959 35.5523 959 35C959 34.4477 958.552 34 958 34C957.448 34 957 34.4477 957 35C957 35.5523 957.448 36 958 36Z" fill="#D9D9D9"/>
<path d="M1033 29C1033.55 29 1034 28.5523 1034 28C1034 27.4477 1033.55 27 1033 27C1032.45 27 1032 27.4477 1032 28C1032 28.5523 1032.45 29 1033 29Z" fill="#D9D9D9"/>
<path d="M903 65C903.552 65 904 64.5523 904 64C904 63.4477 903.552 63 903 63C902.448 63 902 63.4477 902 64C902 64.5523 902.448 65 903 65Z" fill="#D9D9D9"/>
<path d="M613 17C613.552 17 614 16.5523 614 16C614 15.4477 613.552 15 613 15C612.448 15 612 15.4477 612 16C612 16.5523 612.448 17 613 17Z" fill="#D9D9D9"/>
<path d="M1041 101C1041.55 101 1042 100.552 1042 100C1042 99.4477 1041.55 99 1041 99C1040.45 99 1040 99.4477 1040 100C1040 100.552 1040.45 101 1041 101Z" fill="#D9D9D9"/>
<path d="M714 87C714.552 87 715 86.5523 715 86C715 85.4477 714.552 85 714 85C713.448 85 713 85.4477 713 86C713 86.5523 713.448 87 714 87Z" fill="#D9D9D9"/>
<path d="M770 38C770.552 38 771 37.5523 771 37C771 36.4477 770.552 36 770 36C769.448 36 769 36.4477 769 37C769 37.5523 769.448 38 770 38Z" fill="#D9D9D9"/>
<path d="M814 126C814.552 126 815 125.552 815 125C815 124.448 814.552 124 814 124C813.448 124 813 124.448 813 125C813 125.552 813.448 126 814 126Z" fill="#D9D9D9"/>
<path d="M390 7C390.552 7 391 6.55228 391 6C391 5.44772 390.552 5 390 5C389.448 5 389 5.44772 389 6C389 6.55228 389.448 7 390 7Z" fill="#D9D9D9"/>
<path d="M462 2C462.552 2 463 1.55228 463 1C463 0.447715 462.552 0 462 0C461.448 0 461 0.447715 461 1C461 1.55228 461.448 2 462 2Z" fill="#D9D9D9"/>
<path d="M428 44C428.552 44 429 43.5523 429 43C429 42.4477 428.552 42 428 42C427.448 42 427 42.4477 427 43C427 43.5523 427.448 44 428 44Z" fill="#D9D9D9"/>
<path d="M873 214C873.552 214 874 213.552 874 213C874 212.448 873.552 212 873 212C872.448 212 872 212.448 872 213C872 213.552 872.448 214 873 214Z" fill="#D9D9D9"/>
<path d="M953 189C953.552 189 954 188.552 954 188C954 187.448 953.552 187 953 187C952.448 187 952 187.448 952 188C952 188.552 952.448 189 953 189Z" fill="#D9D9D9"/>
<path d="M964 259C964.552 259 965 258.552 965 258C965 257.448 964.552 257 964 257C963.448 257 963 257.448 963 258C963 258.552 963.448 259 964 259Z" fill="#D9D9D9"/>
<path d="M179 36C179.552 36 180 35.5523 180 35C180 34.4477 179.552 34 179 34C178.448 34 178 34.4477 178 35C178 35.5523 178.448 36 179 36Z" fill="#D9D9D9"/>
<path d="M251 31C251.552 31 252 30.5523 252 30C252 29.4477 251.552 29 251 29C250.448 29 250 29.4477 250 30C250 30.5523 250.448 31 251 31Z" fill="#D9D9D9"/>
<path d="M262 101C262.552 101 263 100.552 263 100C263 99.4477 262.552 99 262 99C261.448 99 261 99.4477 261 100C261 100.552 261.448 101 262 101Z" fill="#D9D9D9"/>
<path d="M958 36C958.552 36 959 35.5523 959 35C959 34.4477 958.552 34 958 34C957.448 34 957 34.4477 957 35C957 35.5523 957.448 36 958 36Z" fill="#D9D9D9"/>
<path d="M1033 29C1033.55 29 1034 28.5523 1034 28C1034 27.4477 1033.55 27 1033 27C1032.45 27 1032 27.4477 1032 28C1032 28.5523 1032.45 29 1033 29Z" fill="#D9D9D9"/>
<path d="M903 65C903.552 65 904 64.5523 904 64C904 63.4477 903.552 63 903 63C902.448 63 902 63.4477 902 64C902 64.5523 902.448 65 903 65Z" fill="#D9D9D9"/>
<path d="M613 17C613.552 17 614 16.5523 614 16C614 15.4477 613.552 15 613 15C612.448 15 612 15.4477 612 16C612 16.5523 612.448 17 613 17Z" fill="#D9D9D9"/>
<path d="M1041 101C1041.55 101 1042 100.552 1042 100C1042 99.4477 1041.55 99 1041 99C1040.45 99 1040 99.4477 1040 100C1040 100.552 1040.45 101 1041 101Z" fill="#D9D9D9"/>
<path d="M714 87C714.552 87 715 86.5523 715 86C715 85.4477 714.552 85 714 85C713.448 85 713 85.4477 713 86C713 86.5523 713.448 87 714 87Z" fill="#D9D9D9"/>
<path d="M770 38C770.552 38 771 37.5523 771 37C771 36.4477 770.552 36 770 36C769.448 36 769 36.4477 769 37C769 37.5523 769.448 38 770 38Z" fill="#D9D9D9"/>
<path d="M814 126C814.552 126 815 125.552 815 125C815 124.448 814.552 124 814 124C813.448 124 813 124.448 813 125C813 125.552 813.448 126 814 126Z" fill="#D9D9D9"/>
<path d="M390 7C390.552 7 391 6.55228 391 6C391 5.44772 390.552 5 390 5C389.448 5 389 5.44772 389 6C389 6.55228 389.448 7 390 7Z" fill="#D9D9D9"/>
<path d="M462 2C462.552 2 463 1.55228 463 1C463 0.447715 462.552 0 462 0C461.448 0 461 0.447715 461 1C461 1.55228 461.448 2 462 2Z" fill="#D9D9D9"/>
<path d="M428 44C428.552 44 429 43.5523 429 43C429 42.4477 428.552 42 428 42C427.448 42 427 42.4477 427 43C427 43.5523 427.448 44 428 44Z" fill="#D9D9D9"/>
<path d="M873 214C873.552 214 874 213.552 874 213C874 212.448 873.552 212 873 212C872.448 212 872 212.448 872 213C872 213.552 872.448 214 873 214Z" fill="#D9D9D9"/>
<path d="M953 189C953.552 189 954 188.552 954 188C954 187.448 953.552 187 953 187C952.448 187 952 187.448 952 188C952 188.552 952.448 189 953 189Z" fill="#D9D9D9"/>
<path d="M964 259C964.552 259 965 258.552 965 258C965 257.448 964.552 257 964 257C963.448 257 963 257.448 963 258C963 258.552 963.448 259 964 259Z" fill="#D9D9D9"/>
<path d="M409 169C409.552 169 410 168.552 410 168C410 167.448 409.552 167 409 167C408.448 167 408 167.448 408 168C408 168.552 408.448 169 409 169Z" fill="#D9D9D9"/>
<path d="M481 164C481.552 164 482 163.552 482 163C482 162.448 481.552 162 481 162C480.448 162 480 162.448 480 163C480 163.552 480.448 164 481 164Z" fill="#D9D9D9"/>
<path d="M492 234C492.552 234 493 233.552 493 233C493 232.448 492.552 232 492 232C491.448 232 491 232.448 491 233C491 233.552 491.448 234 492 234Z" fill="#D9D9D9"/>
<path d="M1188 169C1188.55 169 1189 168.552 1189 168C1189 167.448 1188.55 167 1188 167C1187.45 167 1187 167.448 1187 168C1187 168.552 1187.45 169 1188 169Z" fill="#D9D9D9"/>
<path d="M1263 162C1263.55 162 1264 161.552 1264 161C1264 160.448 1263.55 160 1263 160C1262.45 160 1262 160.448 1262 161C1262 161.552 1262.45 162 1263 162Z" fill="#D9D9D9"/>
<path d="M1133 198C1133.55 198 1134 197.552 1134 197C1134 196.448 1133.55 196 1133 196C1132.45 196 1132 196.448 1132 197C1132 197.552 1132.45 198 1133 198Z" fill="#D9D9D9"/>
<path d="M843 150C843.552 150 844 149.552 844 149C844 148.448 843.552 148 843 148C842.448 148 842 148.448 842 149C842 149.552 842.448 150 843 150Z" fill="#D9D9D9"/>
<path d="M1271 234C1271.55 234 1272 233.552 1272 233C1272 232.448 1271.55 232 1271 232C1270.45 232 1270 232.448 1270 233C1270 233.552 1270.45 234 1271 234Z" fill="#D9D9D9"/>
<path d="M944 220C944.552 220 945 219.552 945 219C945 218.448 944.552 218 944 218C943.448 218 943 218.448 943 219C943 219.552 943.448 220 944 220Z" fill="#D9D9D9"/>
<path d="M1000 171C1000.55 171 1001 170.552 1001 170C1001 169.448 1000.55 169 1000 169C999.448 169 999 169.448 999 170C999 170.552 999.448 171 1000 171Z" fill="#D9D9D9"/>
<path d="M1044 259C1044.55 259 1045 258.552 1045 258C1045 257.448 1044.55 257 1044 257C1043.45 257 1043 257.448 1043 258C1043 258.552 1043.45 259 1044 259Z" fill="#D9D9D9"/>
<path d="M620 140C620.552 140 621 139.552 621 139C621 138.448 620.552 138 620 138C619.448 138 619 138.448 619 139C619 139.552 619.448 140 620 140Z" fill="#D9D9D9"/>
<path d="M692 135C692.552 135 693 134.552 693 134C693 133.448 692.552 133 692 133C691.448 133 691 133.448 691 134C691 134.552 691.448 135 692 135Z" fill="#D9D9D9"/>
<path d="M658 177C658.552 177 659 176.552 659 176C659 175.448 658.552 175 658 175C657.448 175 657 175.448 657 176C657 176.552 657.448 177 658 177Z" fill="#D9D9D9"/>
<path d="M1103 347C1103.55 347 1104 346.552 1104 346C1104 345.448 1103.55 345 1103 345C1102.45 345 1102 345.448 1102 346C1102 346.552 1102.45 347 1103 347Z" fill="#D9D9D9"/>
<path d="M1183 322C1183.55 322 1184 321.552 1184 321C1184 320.448 1183.55 320 1183 320C1182.45 320 1182 320.448 1182 321C1182 321.552 1182.45 322 1183 322Z" fill="#D9D9D9"/>
<path d="M1194 392C1194.55 392 1195 391.552 1195 391C1195 390.448 1194.55 390 1194 390C1193.45 390 1193 390.448 1193 391C1193 391.552 1193.45 392 1194 392Z" fill="#D9D9D9"/>
<path d="M-325 380.908C-161.391 424.37 171.282 450.676 193.096 208.204C220.364 -94.8854 421.585 964.213 685.805 568.481C950.024 172.749 1161.59 1011.11 1316.73 633.674C1471.88 256.242 1709.77 364.896 1741.74 169.318" stroke="#1B0F1F" stroke-width="9.40283"/>
<path d="M-325 418.547C-161.391 469.182 171.282 499.83 193.096 217.338C220.364 -135.776 421.585 1098.13 685.805 637.078C950.024 176.03 1161.59 1152.76 1316.73 713.031C1471.88 273.304 1709.77 399.892 1741.74 172.033" stroke="#1B0F1F" stroke-width="9.40283"/>
<path d="M-325 451.757C-161.391 508.722 171.282 543.2 193.096 225.397C220.364 -171.856 421.585 1216.28 685.805 697.605C950.024 178.926 1161.59 1277.75 1316.73 783.052C1471.88 288.359 1709.77 430.771 1741.74 174.429" stroke="#1B0F1F" stroke-width="9.40283"/>
<path d="M-325 468.731C-161.391 528.931 171.282 565.368 193.096 229.517C220.364 -190.297 421.585 1276.67 685.805 728.54C950.024 180.406 1161.59 1341.63 1316.73 818.84C1471.88 296.054 1709.77 446.553 1741.74 175.654" stroke="#1B0F1F" stroke-width="9.40283"/>
<path d="M-325 485.705C-161.391 549.14 171.282 587.535 193.096 233.636C220.364 -208.738 421.585 1337.07 685.805 759.476C950.024 181.886 1161.59 1405.51 1316.73 854.629C1471.88 303.748 1760.03 519.092 1792 233.636H1850L1671.5 995L1180.5 1138L-7 1111L-325 485.705Z" fill="#1B0F1F" stroke="#1B0F1F" stroke-width="9.40283"/>
</g>
<defs>
<clipPath id="clip0_1_288">
<rect width="1366" height="1061" fill="white"/>
</clipPath>
</defs>
</svg>
